<svg id="Layer_1" data-name="Layer 1" xmlns="http://www.w3.org/2000/svg" xmlns:xlink="http://www.w3.org/1999/xlink" viewBox="0 0 486.57368 364.97922"><defs><style>.cls-1{fill:#1d1d1b;}.cls-2{fill:url(#linear-gradient);}.cls-3{fill:url(#linear-gradient-2);}.cls-4{fill:url(#linear-gradient-3);}.cls-5{fill:url(#linear-gradient-4);}</style><linearGradient id="linear-gradient" x1="209.32462" y1="328.70401" x2="376.04871" y2="328.70401" gradientUnits="userSpaceOnUse"><stop offset="0" stop-color="#1d1d1b" stop-opacity="0"/><stop offset="1" stop-color="#1d1d1b"/></linearGradient><linearGradient id="linear-gradient-2" x1="110.52497" y1="36.27521" x2="277.24906" y2="36.27521" gradientUnits="userSpaceOnUse"><stop offset="0" stop-color="#1d1d1b"/><stop offset="1" stop-color="#1d1d1b" stop-opacity="0"/></linearGradient><linearGradient id="linear-gradient-3" x1="121.08336" y1="149.54169" x2="53.10018" y2="184.33168" gradientUnits="userSpaceOnUse"><stop offset="0.17917" stop-color="#1d1d1b"/><stop offset="0.35156" stop-color="#1d1d1b" stop-opacity="0.45953"/><stop offset="0.55175" stop-color="#1d1d1b" stop-opacity="0.11144"/><stop offset="0.79804" stop-color="#1d1d1b" stop-opacity="0"/></linearGradient><linearGradient id="linear-gradient-4" x1="360.44588" y1="204.86734" x2="448.48717" y2="204.86734" xlink:href="#linear-gradient-3"/></defs><title>vm_icon_dark</title><path class="cls-1" d="M388.87487,23.142c36.05115,0,51.30341,21.36271,51.30341,51.48172V142.2154c0,18.2108,6.933,26.26514,22.18522,26.26514h10.7454v28.01815H462.3635c-15.25226,0-22.18522,8.05434-22.18522,26.26513v67.59166c0,30.119-15.25226,51.48172-51.30341,51.48172H376.04871V315.57081h11.092c15.6001,0,23.57282-9.45575,23.57282-26.26513V221.714c0-21.01361,5.892-33.97163,19.0647-38.5237v-1.75177c-13.17275-4.55207-19.0647-17.15973-19.0647-38.17335V75.67354c0-16.80938-7.97272-26.26513-23.57282-26.26513h-11.092V23.142Z"/><path class="cls-1" d="M97.69881,341.8372c-36.05115,0-51.30341-21.36271-51.30341-51.48172V222.76382c0-18.21079-6.933-26.26513-22.18522-26.26513H13.46478V168.48054h10.7454c15.25226,0,22.18522-8.05434,22.18522-26.26514V74.62374c0-30.119,15.25226-51.48172,51.30341-51.48172H110.525V49.40841H99.433c-15.6001,0-23.57282,9.45575-23.57282,26.26513V143.2652c0,21.01362-5.89195,33.97164-19.0647,38.52371v1.75176c13.17275,4.55207,19.0647,17.15974,19.0647,38.17335v67.59166c0,16.80938,7.97272,26.26513,23.57282,26.26513h11.092V341.8372Z"/><rect class="cls-2" x="209.32462" y="315.57081" width="166.72408" height="26.26639"/><rect class="cls-3" x="110.52497" y="23.14202" width="166.72408" height="26.26639"/><path class="cls-1" d="M140.29321,228.57988l-28.96435-87.40722h33.93457l14.56787,59.1289h1.71387l14.56787-59.1289h32.90625l-28.96436,87.40722Z"/><path class="cls-1" d="M220.4978,228.57988v-40.79c0-15.5957,0-31.02148-.85693-46.61718h32.04932l1.88525,12.85351h1.71387c6.85547-9.76855,16.28174-14.56738,28.10742-14.56738,11.99707,0,20.73779,6.16992,25.53662,17.13867h1.71387c6.85547-12.33984,17.48144-17.13867,29.30713-17.13867,17.48144,0,27.0791,11.4834,27.0791,31.70605v57.415H333.613V180.4207c0-8.57031-3.9419-12.68359-10.626-12.68359-7.88379,0-12.51123,6.16992-12.51123,15.76758v45.07519H277.05542V180.4207c0-8.57031-3.94189-12.68359-10.626-12.68359-7.88378,0-12.51123,6.16992-12.51123,15.76758v45.07519Z"/><path class="cls-4" d="M51.43728,184.19181s40.31637-13.82814,59.93273-43.03L127.80519,159.022S91.74392,181.71859,51.43728,184.19181Z"/><path class="cls-5" d="M366.71713,228.58192s22.902-48.01123,81.77-47.31053c0,0-60.42618-2.6414-86.42831,17.00373C362.05886,198.27512,356.236,214.11906,366.71713,228.58192Z"/></svg>