<svg id="Layer_1" data-name="Layer 1" xmlns="http://www.w3.org/2000/svg" xmlns:xlink="http://www.w3.org/1999/xlink" viewBox="0 0 1411.75953 364.97922"><defs><style>.cls-1{fill:#fff;}.cls-2{fill:url(#linear-gradient);}.cls-3{fill:url(#linear-gradient-2);}.cls-4{fill:url(#linear-gradient-3);}.cls-5{fill:url(#linear-gradient-4);}</style><linearGradient id="linear-gradient" x1="205.23286" y1="296.19713" x2="334.89028" y2="296.19713" gradientUnits="userSpaceOnUse"><stop offset="0" stop-color="#fff" stop-opacity="0"/><stop offset="1" stop-color="#fff"/></linearGradient><linearGradient id="linear-gradient-2" x1="128.39868" y1="68.78209" x2="258.0561" y2="68.78209" gradientUnits="userSpaceOnUse"><stop offset="0" stop-color="#fff"/><stop offset="1" stop-color="#fff" stop-opacity="0"/></linearGradient><linearGradient id="linear-gradient-3" x1="136.60969" y1="156.86678" x2="83.74076" y2="183.92215" gradientUnits="userSpaceOnUse"><stop offset="0.17917" stop-color="#fff"/><stop offset="0.21637" stop-color="#fff" stop-opacity="0.86275"/><stop offset="0.27735" stop-color="#fff" stop-opacity="0.66273"/><stop offset="0.34124" stop-color="#fff" stop-opacity="0.48522"/><stop offset="0.40676" stop-color="#fff" stop-opacity="0.3356"/><stop offset="0.4743" stop-color="#fff" stop-opacity="0.21372"/><stop offset="0.54456" stop-color="#fff" stop-opacity="0.11935"/><stop offset="0.61866" stop-color="#fff" stop-opacity="0.05238"/><stop offset="0.69916" stop-color="#fff" stop-opacity="0.01268"/><stop offset="0.79804" stop-color="#fff" stop-opacity="0"/></linearGradient><linearGradient id="linear-gradient-4" x1="322.75633" y1="199.89225" x2="391.22398" y2="199.89225" xlink:href="#linear-gradient-3"/></defs><title>vm_logo_light</title><path class="cls-1" d="M508.70556,221.07048l-21.9331-60.793h11.44336l17.0459,50.30273h.59619l16.92627-50.30273h11.20508l-21.93311,60.793Z"/><path class="cls-1" d="M602.15967,188.64763c0,10.84765,0,21.57519.59619,32.42285h-8.93994l-1.19239-10.9668h-.834c-3.81445,7.62891-10.9668,12.15918-20.74121,12.15918-11.92041,0-19.7876-7.15234-19.7876-17.88086,0-11.68164,8.34424-18.71484,25.50928-19.668l15.01953-.835v-3.09863c0-8.82129-6.31787-12.75488-14.3042-12.75488-8.46338,0-13.82764,4.05273-16.33057,11.68164l-9.29785-3.33692c2.7417-11.32422,13.11231-17.28418,25.62842-17.28418,15.37695,0,24.67432,7.74805,24.67432,21.33692Zm-10.37012,3.81445-13.35059.834c-10.3706.71582-16.80761,3.57618-16.80761,10.72852,0,5.60254,4.291,9.05957,11.20507,9.05957C583.32617,213.08415,591.43164,204.382,591.78955,192.46208Z"/><path class="cls-1" d="M618.49023,221.07048V137.62907h10.728v83.44141Z"/><path class="cls-1" d="M653.05761,204.97868V169.21794H641.13769v-8.94043h12.7544l2.62256-16.68848h7.271v16.68848h17.64209v8.94043H663.78564v35.40234c0,5.96,3.33789,8.70215,7.74854,8.70215a15.01229,15.01229,0,0,0,8.46338-2.50293l3.45654,7.38965a22.60544,22.60544,0,0,1-13.58887,4.05371C659.97119,222.26286,653.05761,216.3029,653.05761,204.97868Z"/><path class="cls-1" d="M747.10937,194.36931H702.40869c1.07275,11.5625,7.98633,18.95312,18.23779,18.95312,6.91358,0,12.03955-2.98047,15.61572-10.13184l9.53614,3.45606c-4.29151,10.37109-13.23145,15.61621-25.15186,15.61621-18.11865,0-29.2041-13.82812-29.2041-31.58887s10.96631-31.58789,29.085-31.58789c15.97315,0,26.93945,11.085,26.93945,30.03809A36.29351,36.29351,0,0,1,747.10937,194.36931Zm-44.58154-8.582h34.688c-.95362-11.32421-7.50977-17.76171-16.68848-17.76171C710.63379,168.02556,703.95849,174.82048,702.52783,185.78727Z"/><path class="cls-1" d="M796.33886,159.20524v10.13184c-1.90722-.11914-2.86084-.11914-4.52978-.11914-9.53613,0-19.90674,5.84082-19.90674,23.959v27.89356h-10.728V192.70036c0-10.84766,0-21.57519-.59619-32.42285h10.13233l1.43017,11.91992h.71533c3.57618-8.582,10.25147-13.11133,18.71485-13.11133C793.23926,159.0861,794.312,159.0861,796.33886,159.20524Z"/><path class="cls-1" d="M805.87451,221.07048V192.70036c0-10.84766,0-21.57519-.59619-32.42285h22.291l1.311,8.94043h1.19189a22.6281,22.6281,0,0,1,19.54932-10.13184c8.34375,0,14.42334,4.291,17.76074,11.91992h1.19238c4.76807-8.583,12.15821-11.91992,20.38331-11.91992,12.15869,0,18.834,7.98633,18.834,22.05176v39.93262H884.54736v-33.4961c0-5.96-2.74121-8.82031-7.39014-8.82031-5.48339,0-8.70166,4.291-8.70166,10.9668v31.34961H845.21094v-33.4961c0-5.96-2.7417-8.82031-7.39063-8.82031-5.48291,0-8.70166,4.291-8.70166,10.9668v31.34961Z"/><path class="cls-1" d="M980.62256,195.8H939.498c1.1919,8.10547,5.36426,11.08594,10.96631,11.08594,4.64893,0,7.50977-2.38477,9.417-6.67578l20.50292,4.05273c-4.64892,11.68164-13.82763,18-30.39648,18-21.69482,0-32.66113-13.709-32.66113-31.58887s10.84717-31.58789,32.42285-31.58789c20.26416,0,31.23047,13.58887,31.23047,29.56153A65.19928,65.19928,0,0,1,980.62256,195.8Zm-40.88623-11.44336h19.78759c-1.19189-7.0332-5.00634-9.89355-9.77441-9.89355C944.62353,174.46306,941.04785,177.56169,939.73633,184.35661Z"/><path class="cls-1" d="M988.13135,190.674c0-20.14453,8.70166-31.58789,23.36328-31.58789,7.98681,0,14.3042,3.81446,18.35742,10.72754h1.19189V137.62907h23.24414v51.01856c0,10.84765,0,21.57519.59619,32.42285h-22.291l-1.54932-9.53614h-1.19189c-4.05322,6.91407-10.37061,10.72852-18.35742,10.72852C996.833,222.26286,988.13135,210.8195,988.13135,190.674Zm42.91259,0c0-8.10547-3.81445-13.1123-9.894-13.1123-5.96,0-9.77441,5.00683-9.77441,13.1123s3.81445,13.11231,9.77441,13.11231C1027.22949,203.7863,1031.04394,198.77946,1031.04394,190.674Z"/><path class="cls-1" d="M1127.71582,195.8h-41.12451c1.19189,8.10547,5.36425,11.08594,10.96679,11.08594,4.64844,0,7.50928-2.38477,9.41651-6.67578l20.50293,4.05273c-4.64893,11.68164-13.82764,18-30.39649,18-21.69482,0-32.66113-13.709-32.66113-31.58887s10.84717-31.58789,32.42285-31.58789c20.26416,0,31.231,13.58887,31.231,29.56153A65.19185,65.19185,0,0,1,1127.71582,195.8Zm-40.88623-11.44336h19.7876c-1.1919-7.0332-5.00635-9.89355-9.77442-9.89355C1091.71679,174.46306,1088.14111,177.56169,1086.82959,184.35661Z"/><path class="cls-1" d="M1136.53564,141.801c0-7.15137,5.84082-12.51563,13.35059-12.51563s13.46972,5.36426,13.46972,12.51563c0,7.15234-5.96,12.5166-13.46972,12.5166S1136.53564,148.95329,1136.53564,141.801Zm1.66895,79.26953v-60.793h23.24414v60.793Z"/><path class="cls-1" d="M1219.26074,159.20524v23.36328a31.18126,31.18126,0,0,0-4.64893-.23828c-9.17871,0-16.80761,4.41016-16.80761,18.23731v20.50293h-23.24414V192.70036c0-10.84766,0-21.57519-.5962-32.42285h22.291l1.90723,13.1123h1.66845c2.98047-9.77441,8.82129-14.30371,16.09229-14.30371C1216.9956,159.0861,1217.94922,159.0861,1219.26074,159.20524Z"/><path class="cls-1" d="M1224.02881,190.674c0-17.87988,10.84716-31.58789,32.66113-31.58789s32.66113,13.708,32.66113,31.58789-10.84717,31.58887-32.66113,31.58887S1224.02881,208.55388,1224.02881,190.674Zm42.07812,0c0-8.10547-3.69531-13.1123-9.417-13.1123s-9.417,5.00683-9.417,13.1123,3.69531,13.11231,9.417,13.11231S1266.10693,198.77946,1266.10693,190.674Z"/><path class="cls-1" d="M1296.50146,206.051l20.145-4.05274c1.1919,4.17188,4.52979,6.55567,10.0127,6.55567,4.17236,0,6.55615-1.78809,6.55615-4.5293,0-9.05957-35.28369-1.43066-35.28369-27.05859,0-10.13184,9.7749-17.87989,27.29736-17.87989,14.78076,0,25.27051,4.76758,28.251,15.25782l-20.14551,4.05273c-1.07275-4.05273-4.291-5.60254-7.748-5.60254-3.3374,0-5.60254,1.54981-5.60254,3.93359,0,8.93946,35.2837,1.43067,35.2837,27.0586,0,10.72851-9.89356,18.47656-28.01221,18.47656C1310.56689,222.26286,1299.48144,216.8986,1296.50146,206.051Z"/><path class="cls-1" d="M344.86489,58.56871c28.03613,0,39.89746,16.61328,39.89746,40.03614V151.1693c0,14.16211,5.3916,20.42578,17.25293,20.42578h8.35645v21.78906h-8.35645c-11.86133,0-17.25293,6.26367-17.25293,20.42578v52.56446c0,23.42285-11.86133,40.03613-39.89746,40.03613h-9.97461V285.98375h8.626c12.13183,0,18.332-7.35351,18.332-20.42578V212.99352c0-16.3418,4.582-26.41895,14.82617-29.959v-1.3623c-10.24414-3.54-14.82617-13.34473-14.82617-29.68652V99.42125c0-13.07226-6.2002-20.42578-18.332-20.42578h-8.626V58.56871Z"/><path class="cls-1" d="M118.42407,306.41051c-28.03613,0-39.89746-16.61328-39.89746-40.03613V213.80992c0-14.16211-5.3916-20.42578-17.25293-20.42578H52.91723V171.59508h8.35645c11.86133,0,17.25293-6.26367,17.25293-20.42578V98.60485c0-23.42286,11.86133-40.03614,39.89746-40.03614h9.97461V78.99547h-8.626c-12.13183,0-18.332,7.35352-18.332,20.42578v52.56446c0,16.34179-4.582,26.41894-14.82617,29.959v1.3623c10.24414,3.54,14.82617,13.34473,14.82617,29.68653V265.558c0,13.07227,6.2002,20.42578,18.332,20.42578h8.626v20.42676Z"/><rect class="cls-2" x="205.23286" y="285.98375" width="129.65742" height="20.42676"/><rect class="cls-3" x="128.39868" y="58.56871" width="129.65742" height="20.42676"/><path class="cls-1" d="M151.5498,218.33415l-22.5249-67.97461H155.415L166.74463,196.342h1.33252l11.32959-45.98242h25.59082l-22.52539,67.97461Z"/><path class="cls-1" d="M213.92285,218.33415V186.61247c0-12.12891,0-24.124-.6665-36.25293h24.9248l1.46582,9.99609h1.333a25.30281,25.30281,0,0,1,21.85888-11.33007c9.33008,0,16.12745,4.79882,19.85938,13.3291h1.333c5.33154-9.59668,13.59521-13.3291,22.7915-13.3291,13.59522,0,21.05957,8.93066,21.05957,24.6582v44.65039H301.8916V180.881c0-6.66406-3.06592-9.86328-8.26367-9.86328-6.13135,0-9.73,4.79883-9.73,12.2627v35.05371H257.90722V180.881c0-6.66406-3.06543-9.86328-8.26367-9.86328-6.13135,0-9.73,4.79883-9.73,12.2627v35.05371Z"/><path class="cls-4" d="M82.44756,183.81337s31.3531-10.75382,46.60828-33.46341l12.78126,13.88947S113.7931,181.89,82.44756,183.81337Z"/><path class="cls-5" d="M327.63334,218.33452s17.81036-37.33721,63.59064-36.79229c0,0-46.992-2.05416-67.21328,13.2234C324.0107,194.76563,319.48241,207.0871,327.63334,218.33452Z"/></svg>