<svg id="Layer_1" data-name="Layer 1" xmlns="http://www.w3.org/2000/svg" xmlns:xlink="http://www.w3.org/1999/xlink" viewBox="0 0 1411.75953 364.97922"><defs><style>.cls-1{fill:#fff;}.cls-2{fill:url(#linear-gradient);}.cls-3{fill:url(#linear-gradient-2);}.cls-4{fill:url(#linear-gradient-3);}.cls-5{fill:url(#linear-gradient-4);}</style><linearGradient id="linear-gradient" x1="205.23286" y1="296.19713" x2="334.89028" y2="296.19713" gradientUnits="userSpaceOnUse"><stop offset="0" stop-color="#fff" stop-opacity="0"/><stop offset="1" stop-color="#fff"/></linearGradient><linearGradient id="linear-gradient-2" x1="128.39868" y1="68.78209" x2="258.0561" y2="68.78209" gradientUnits="userSpaceOnUse"><stop offset="0" stop-color="#fff"/><stop offset="1" stop-color="#fff" stop-opacity="0"/></linearGradient><linearGradient id="linear-gradient-3" x1="136.60969" y1="156.86678" x2="83.74076" y2="183.92215" gradientUnits="userSpaceOnUse"><stop offset="0.17917" stop-color="#fff"/><stop offset="0.21637" stop-color="#fff" stop-opacity="0.86275"/><stop offset="0.27735" stop-color="#fff" stop-opacity="0.66273"/><stop offset="0.34124" stop-color="#fff" stop-opacity="0.48522"/><stop offset="0.40676" stop-color="#fff" stop-opacity="0.3356"/><stop offset="0.4743" stop-color="#fff" stop-opacity="0.21372"/><stop offset="0.54456" stop-color="#fff" stop-opacity="0.11935"/><stop offset="0.61866" stop-color="#fff" stop-opacity="0.05238"/><stop offset="0.69916" stop-color="#fff" stop-opacity="0.01268"/><stop offset="0.79804" stop-color="#fff" stop-opacity="0"/></linearGradient><linearGradient id="linear-gradient-4" x1="322.75633" y1="199.89225" x2="391.22398" y2="199.89225" xlink:href="#linear-gradient-3"/></defs><title>vm_credits_light</title><path class="cls-1" d="M508.70519,214.07147l-21.9331-60.793h11.44336l17.04589,50.30274h.5962l16.92627-50.30274h11.20507l-21.9331,60.793Z"/><path class="cls-1" d="M602.15929,181.64862c0,10.84766,0,21.5752.5962,32.42285h-8.93995l-1.19238-10.96679h-.834c-3.81446,7.6289-10.9668,12.15918-20.74121,12.15918-11.92041,0-19.7876-7.15235-19.7876-17.88086,0-11.68164,8.34424-18.71485,25.50928-19.668l15.01953-.835v-3.09864c0-8.82129-6.31787-12.75488-14.3042-12.75488-8.46338,0-13.82764,4.05274-16.33057,11.68164l-9.29785-3.33691c2.7417-11.32422,13.1123-17.28418,25.62842-17.28418,15.377,0,24.67431,7.748,24.67431,21.33691Zm-10.37011,3.81445-13.35059.834c-10.3706.71582-16.80762,3.57617-16.80762,10.72851,0,5.60254,4.291,9.05957,11.20508,9.05957C583.3258,206.08514,591.43127,197.383,591.78918,185.46307Z"/><path class="cls-1" d="M618.48986,214.07147v-83.4414h10.728v83.4414Z"/><path class="cls-1" d="M653.05724,197.97968V162.21893H641.13732V153.2785h12.7544L656.51427,136.59h7.271V153.2785h17.64209v8.94043H663.78527v35.40235c0,5.96,3.33789,8.70215,7.74854,8.70215a15.01234,15.01234,0,0,0,8.46337-2.50293l3.45655,7.38964a22.60545,22.60545,0,0,1-13.58887,4.05372C659.97082,215.26386,653.05724,209.30389,653.05724,197.97968Z"/><path class="cls-1" d="M747.109,187.3703H702.40832c1.07275,11.5625,7.98633,18.95313,18.23779,18.95313,6.91357,0,12.03955-2.98047,15.61572-10.13184l9.53614,3.45605c-4.29151,10.3711-13.23145,15.61622-25.15186,15.61622-18.11865,0-29.2041-13.82813-29.2041-31.58887s10.96631-31.58789,29.085-31.58789c15.97314,0,26.93945,11.085,26.93945,30.03808A36.29331,36.29331,0,0,1,747.109,187.3703Zm-44.58154-8.582h34.688c-.95362-11.32422-7.50977-17.76172-16.68848-17.76172C710.63341,161.02655,703.95812,167.82147,702.52746,178.78827Z"/><path class="cls-1" d="M796.33849,152.20624v10.13183c-1.90722-.11914-2.86084-.11914-4.52978-.11914-9.53614,0-19.90674,5.84082-19.90674,23.959v27.89355h-10.728V185.70136c0-10.84766,0-21.5752-.59619-32.42286h10.13232l1.43018,11.91993h.71533c3.57617-8.582,10.25147-13.11133,18.71485-13.11133C793.23888,152.0871,794.31164,152.0871,796.33849,152.20624Z"/><path class="cls-1" d="M805.87414,214.07147V185.70136c0-10.84766,0-21.5752-.59619-32.42286h22.291l1.311,8.94043h1.19189a22.62809,22.62809,0,0,1,19.54932-10.13183c8.34375,0,14.42334,4.291,17.76074,11.91992h1.19238c4.76807-8.583,12.15821-11.91992,20.3833-11.91992,12.15869,0,18.834,7.98633,18.834,22.05176v39.93261H884.547V180.57538c0-5.96-2.74121-8.82031-7.39014-8.82031-5.4834,0-8.70166,4.291-8.70166,10.96679v31.34961H845.21056V180.57538c0-5.96-2.7417-8.82031-7.39062-8.82031-5.48291,0-8.70166,4.291-8.70166,10.96679v31.34961Z"/><path class="cls-1" d="M980.62218,188.801H939.49767c1.1919,8.10546,5.36426,11.08593,10.96631,11.08593,4.64893,0,7.50977-2.38476,9.417-6.67578l20.50293,4.05274c-4.64892,11.68164-13.82763,18-30.39648,18-21.69483,0-32.66113-13.709-32.66113-31.58887s10.84716-31.58789,32.42285-31.58789c20.26416,0,31.23047,13.58887,31.23047,29.56152A65.19684,65.19684,0,0,1,980.62218,188.801ZM939.736,177.35761h19.7876c-1.19189-7.03321-5.00635-9.89356-9.77441-9.89356C944.62316,167.464,941.04748,170.56268,939.736,177.35761Z"/><path class="cls-1" d="M988.131,183.675c0-20.14453,8.70166-31.58789,23.36328-31.58789,7.98682,0,14.3042,3.81445,18.35743,10.72754h1.19189V130.63007h23.24414v51.01855c0,10.84766,0,21.5752.59619,32.42285h-22.291l-1.54932-9.53613h-1.19189c-4.05323,6.91406-10.37061,10.72852-18.35743,10.72852C996.83263,215.26386,988.131,203.8205,988.131,183.675Zm42.9126,0c0-8.10547-3.81445-13.11231-9.894-13.11231-5.96,0-9.77442,5.00684-9.77442,13.11231s3.81446,13.1123,9.77442,13.1123C1027.22912,196.78729,1031.04357,191.78046,1031.04357,183.675Z"/><path class="cls-1" d="M1127.71545,188.801h-41.12452c1.1919,8.10546,5.36426,11.08593,10.9668,11.08593,4.64844,0,7.50928-2.38476,9.41651-6.67578l20.50292,4.05274c-4.64892,11.68164-13.82763,18-30.39648,18-21.69482,0-32.66113-13.709-32.66113-31.58887s10.84717-31.58789,32.42285-31.58789c20.26416,0,31.231,13.58887,31.231,29.56152A65.192,65.192,0,0,1,1127.71545,188.801Zm-40.88623-11.44336h19.78759c-1.19189-7.03321-5.00634-9.89356-9.77441-9.89356C1091.71642,167.464,1088.14074,170.56268,1086.82922,177.35761Z"/><path class="cls-1" d="M1136.53527,134.80194c0-7.15137,5.84082-12.51562,13.35059-12.51562s13.46972,5.36425,13.46972,12.51562c0,7.15235-5.96,12.5166-13.46972,12.5166S1136.53527,141.95429,1136.53527,134.80194Zm1.66895,79.26953v-60.793h23.24414v60.793Z"/><path class="cls-1" d="M1219.26037,152.20624v23.36328a31.18126,31.18126,0,0,0-4.64893-.23828c-9.17871,0-16.80762,4.41015-16.80762,18.2373v20.50293h-23.24414V185.70136c0-10.84766,0-21.5752-.59619-32.42286h22.291l1.90723,13.11231h1.66845c2.98047-9.77442,8.82129-14.30371,16.09229-14.30371C1216.99523,152.0871,1217.94884,152.0871,1219.26037,152.20624Z"/><path class="cls-1" d="M1224.02843,183.675c0-17.87988,10.84717-31.58789,32.66114-31.58789s32.66113,13.708,32.66113,31.58789-10.84717,31.58887-32.66113,31.58887S1224.02843,201.55487,1224.02843,183.675Zm42.07813,0c0-8.10547-3.69531-13.11231-9.417-13.11231s-9.417,5.00684-9.417,13.11231,3.69532,13.1123,9.417,13.1123S1266.10656,191.78046,1266.10656,183.675Z"/><path class="cls-1" d="M1296.50109,199.05194l20.145-4.05273c1.19189,4.17187,4.52979,6.55566,10.0127,6.55566,4.17236,0,6.55615-1.78808,6.55615-4.5293,0-9.05957-35.28369-1.43066-35.28369-27.05859,0-10.13184,9.7749-17.87988,27.29736-17.87988,14.78076,0,25.27051,4.76758,28.251,15.25781l-20.14551,4.05273c-1.07276-4.05273-4.291-5.60253-7.74805-5.60253-3.3374,0-5.60254,1.5498-5.60254,3.93359,0,8.93945,35.28369,1.43066,35.28369,27.05859,0,10.72852-9.89355,18.47657-28.0122,18.47657C1310.56652,215.26386,1299.48107,209.8996,1296.50109,199.05194Z"/><path class="cls-1" d="M344.86489,58.56871c28.03613,0,39.89746,16.61328,39.89746,40.03614V151.1693c0,14.16211,5.3916,20.42578,17.25293,20.42578h8.35645v21.78906h-8.35645c-11.86133,0-17.25293,6.26367-17.25293,20.42578v52.56446c0,23.42285-11.86133,40.03613-39.89746,40.03613h-9.97461V285.98375h8.626c12.13183,0,18.332-7.35351,18.332-20.42578V212.99352c0-16.3418,4.582-26.41895,14.82617-29.959v-1.3623c-10.24414-3.54-14.82617-13.34473-14.82617-29.68652V99.42125c0-13.07226-6.2002-20.42578-18.332-20.42578h-8.626V58.56871Z"/><path class="cls-1" d="M118.42407,306.41051c-28.03613,0-39.89746-16.61328-39.89746-40.03613V213.80992c0-14.16211-5.3916-20.42578-17.25293-20.42578H52.91723V171.59508h8.35645c11.86133,0,17.25293-6.26367,17.25293-20.42578V98.60485c0-23.42286,11.86133-40.03614,39.89746-40.03614h9.97461V78.99547h-8.626c-12.13183,0-18.332,7.35352-18.332,20.42578v52.56446c0,16.34179-4.582,26.41894-14.82617,29.959v1.3623c10.24414,3.54,14.82617,13.34473,14.82617,29.68653V265.558c0,13.07227,6.2002,20.42578,18.332,20.42578h8.626v20.42676Z"/><rect class="cls-2" x="205.23286" y="285.98375" width="129.65742" height="20.42676"/><rect class="cls-3" x="128.39868" y="58.56871" width="129.65742" height="20.42676"/><path class="cls-1" d="M151.55334,218.33612l-22.52491-67.97558h26.39014l11.32959,45.98339h1.33252l11.32959-45.98339h25.59082L182.4757,218.33612Z"/><path class="cls-1" d="M213.92638,218.33612V186.61444c0-12.1289,0-24.125-.6665-36.2539h24.9248l1.46582,9.99609h1.333a25.30194,25.30194,0,0,1,21.85889-11.3291c9.33008,0,16.12744,4.79785,19.85937,13.3291h1.333c5.33154-9.59766,13.59522-13.3291,22.79151-13.3291,13.59521,0,21.05957,8.93066,21.05957,24.65722v44.65137H301.89513V180.883c0-6.665-3.06591-9.86328-8.26367-9.86328-6.13135,0-9.73,4.79785-9.73,12.26269v35.05371H257.91076V180.883c0-6.665-3.06543-9.86328-8.26367-9.86328-6.13135,0-9.73,4.79785-9.73,12.26269v35.05371Z"/><path class="cls-4" d="M82.44756,183.81337s31.3531-10.75382,46.60828-33.46341l12.78126,13.88947S113.7931,181.89,82.44756,183.81337Z"/><path class="cls-5" d="M327.63334,218.33452s17.81036-37.33721,63.59064-36.79229c0,0-46.992-2.05416-67.21328,13.2234C324.0107,194.76563,319.48241,207.0871,327.63334,218.33452Z"/><path class="cls-1" d="M488.45031,92.2453V58.56757h10.77685c9.57422,0,15.92481,6.73535,15.92481,16.83886S508.80138,92.2453,499.22716,92.2453Zm4.33008-3.84863h6.44677c7.02393,0,11.59473-4.90723,11.59473-12.99024s-4.5708-12.99023-11.59473-12.99023h-6.44677Z"/><path class="cls-1" d="M521.26525,92.2453V58.56757h22.37158V62.4162h-18.0415v10.585h16.11719v3.84863H525.59533V88.39667h18.0415V92.2453Z"/><path class="cls-1" d="M559.41955,92.2453,547.24767,58.56757h4.61865L562.30627,88.3h.24072l10.48779-29.73242h4.42627L565.24084,92.2453Z"/><path class="cls-1" d="M582.132,92.2453V58.56757h22.37158V62.4162H586.462v10.585h16.11719v3.84863H586.462V88.39667h18.0415V92.2453Z"/><path class="cls-1" d="M610.85656,92.2453V58.56757h4.33008v29.8291h17.03125V92.2453Z"/><path class="cls-1" d="M635.68468,75.40643c0-10.34375,6.2544-17.32031,15.0586-17.32031S665.754,65.01483,665.754,75.40643s-6.20654,17.32032-15.01074,17.32032S635.68468,85.75018,635.68468,75.40643Zm25.73926,0c0-8.41894-4.23388-13.4707-10.68066-13.4707s-10.729,5.05176-10.729,13.4707c0,8.41993,4.28223,13.47071,10.729,13.47071S661.42394,83.82636,661.42394,75.40643Z"/><path class="cls-1" d="M671.8673,92.2453V58.56757h12.26807c7.45752,0,11.7876,3.84863,11.7876,10.48828,0,6.59082-4.33008,10.44043-11.7876,10.44043h-7.938v12.749Zm4.33008-16.59863H683.943c4.811,0,7.6499-2.35742,7.6499-6.59082S688.754,62.4162,683.943,62.4162h-7.74561Z"/><path class="cls-1" d="M701.07384,92.2453V58.56757h22.37159V62.4162H705.40392v10.585h16.11719v3.84863H705.40392V88.39667h18.04151V92.2453Z"/><path class="cls-1" d="M729.79845,92.2453V58.56757h10.77686c9.57422,0,15.9248,6.73535,15.9248,16.83886s-6.35058,16.83887-15.9248,16.83887Zm4.33008-3.84863h6.44678c7.02393,0,11.59473-4.90723,11.59473-12.99024s-4.5708-12.99023-11.59473-12.99023h-6.44678Z"/><path class="cls-1" d="M797.06213,92.2453,794.36779,84.548H778.63586l-2.69434,7.69726h-4.42627l12.07568-33.67773h5.96582l12.124,33.67773ZM779.88634,80.93964h13.231L786.62218,62.3205h-.24072Z"/><path class="cls-1" d="M806.20666,92.2453V58.56757h4.811L828.72277,85.51h.28857c-.14453-3.56055-.19238-6.63965-.19238-9.959V58.56757h4.32959V92.2453h-4.811L810.58459,65.30292h-.24024c.144,3.6084.19239,6.5918.19239,9.959V92.2453Z"/><path class="cls-1" d="M840.56115,92.2453V58.56757H851.338c9.57422,0,15.92481,6.73535,15.92481,16.83886S860.91222,92.2453,851.338,92.2453Zm4.33008-3.84863H851.338c7.02393,0,11.59473-4.90723,11.59473-12.99024S858.36193,62.4162,851.338,62.4162h-6.44677Z"/><path class="cls-1" d="M885.16418,92.2453V58.56757H895.941c9.57422,0,15.92481,6.73535,15.92481,16.83886S905.51525,92.2453,895.941,92.2453Zm4.33007-3.84863H895.941c7.02393,0,11.59473-4.90723,11.59473-12.99024S902.965,62.4162,895.941,62.4162h-6.44678Z"/><path class="cls-1" d="M917.97912,92.2453V58.56757H940.3507V62.4162H922.3092v10.585h16.11718v3.84863H922.3092V88.39667h18.0415V92.2453Z"/><path class="cls-1" d="M945.40539,84.74042l3.897-1.39551c1.53955,4.041,5.43652,5.72461,9.189,5.72461,4.95557,0,7.40918-2.35742,7.40918-5.48438,0-8.51562-19.77343-3.7041-19.77343-16.74218,0-5.19629,4.37793-8.75684,11.40185-8.75684,5.6294,0,10.15186,2.4541,11.93164,7.50586l-3.897,1.39551c-1.395-3.75293-4.6665-5.24414-8.03467-5.24414-4.61865,0-7.12011,2.26074-7.12011,5.09961,0,8.37109,19.77343,3.55957,19.77343,16.74218,0,5.58106-4.52246,9.14161-11.69092,9.14161C952.47765,92.72675,947.3297,90.12811,945.40539,84.74042Z"/><path class="cls-1" d="M976.05431,92.2453V58.56757h4.33008V92.2453Z"/><path class="cls-1" d="M986.49523,75.40643c0-10.34375,6.20606-17.32031,15.15479-17.32031,6.062,0,11.06543,2.791,13.519,8.99707l-4.041,1.49121c-1.87646-4.71484-5.10009-6.7832-9.478-6.7832-6.44678,0-10.8252,5.14746-10.8252,13.61523s4.23389,13.61524,11.40234,13.61524a11.323,11.323,0,0,0,8.32325-3.55957V78.43768l-8.08252-.38476V74.58905h12.4126V86.80878c-2.88672,3.94531-7.50538,5.918-12.65333,5.918C992.70129,92.72675,986.49523,85.75018,986.49523,75.40643Z"/><path class="cls-1" d="M1022.005,92.2453V58.56757h4.811L1044.52111,85.51h.28857c-.14453-3.56055-.19238-6.63965-.19238-9.959V58.56757h4.32959V92.2453h-4.811l-17.75293-26.94238h-.24024c.14405,3.6084.19238,6.5918.19238,9.959V92.2453Z"/><path class="cls-1" d="M1056.35949,92.2453V58.56757h22.37158V62.4162h-18.0415v10.585h16.11718v3.84863h-16.11718V88.39667h18.0415V92.2453Z"/><path class="cls-1" d="M1085.0841,92.2453V58.56757H1095.861c9.57422,0,15.92481,6.73535,15.92481,16.83886S1105.43517,92.2453,1095.861,92.2453Zm4.33008-3.84863h6.44677c7.02393,0,11.59473-4.90723,11.59473-12.99024s-4.5708-12.99023-11.59473-12.99023h-6.44677Z"/><path class="cls-1" d="M1129.68713,92.2453V58.56757H1142.629c6.30225,0,10.63232,2.74218,10.63232,8.90039,0,3.89746-1.876,6.35058-4.42627,7.40918v.24023c3.75293,1.20313,5.86963,3.80078,5.86963,8.083,0,5.62891-3.65625,9.04492-10.92089,9.04492Zm4.33007-18.90723h8.46729c4.23389,0,6.44678-1.97265,6.44678-5.48535,0-3.51172-2.21289-5.53222-6.44678-5.53222h-8.46729Zm0,15.1543h9.52588c4.37793,0,6.83155-2.02051,6.83155-5.72461,0-3.70508-2.45362-5.77344-6.83155-5.77344h-9.52588Z"/><path class="cls-1" d="M1169.526,92.2453V79.20722l-12.07568-20.63965h4.95508l9.2373,16.50195h.24072l9.09278-16.50195h4.85937l-11.97949,20.59179V92.2453Z"/><path class="cls-1" d="M497.88049,302.19647l-12.17188-33.67773h4.61816l10.44043,29.73242h.24024l10.48828-29.73242h4.42578l-12.21973,33.67773Z"/><path class="cls-1" d="M540.943,302.19647l-2.69434-7.69726H522.5172l-2.69433,7.69726h-4.42676l12.07617-33.67773h5.96582l12.124,33.67773ZM523.7672,290.89081h13.23145l-6.49512-18.61914h-.24121Z"/><path class="cls-1" d="M550.08752,302.19647V268.51874h4.33007v29.8291h17.03125v3.84863Z"/><path class="cls-1" d="M582.75841,302.19647v-29.8291h-11.1621v-3.84863H598.2506v3.84863H587.08849v29.8291Z"/><path class="cls-1" d="M603.06408,302.19647V268.51874h22.37109v3.84863h-18.041v10.585h16.11718V286.801H607.39416v11.54687h18.041v3.84863Z"/><path class="cls-1" d="M631.78869,302.19647V268.51874H644.778c6.73632,0,11.0664,3.80078,11.0664,10.24805,0,4.95507-2.69433,8.32324-7.12109,9.52539l7.60156,13.90429h-4.90723L644.442,288.77362h-8.32324v13.42285Zm4.33008-17.0791h8.46679c4.23438,0,6.92871-2.30957,6.92871-6.35058,0-3.99317-2.69433-6.39942-6.92871-6.39942h-8.46679Z"/><path class="cls-1" d="M662.19787,302.19647V268.51874h6.7832l10.248,28.81836,10.24707-28.81836h6.87988v33.67773H692.026V273.426h-.24023l-10.24805,28.7705H676.775L666.528,273.426h-.24121v28.7705Z"/><path class="cls-1" d="M703.77013,302.19647V268.51874H714.5465c9.57422,0,15.92481,6.73535,15.92481,16.83887s-6.35059,16.83886-15.92481,16.83886Zm4.33008-3.84863h6.44629c7.02441,0,11.59473-4.90723,11.59473-12.99023s-4.57032-12.99024-11.59473-12.99024h-6.44629Z"/><path class="cls-1" d="M736.58556,302.19647V268.51874h22.3711v3.84863h-18.041v10.585h16.11719V286.801H740.91564v11.54687h18.041v3.84863Z"/><path class="cls-1" d="M765.31017,302.19647V268.51874h4.33008v33.67773Z"/><path class="cls-1" d="M777.04943,302.19647V268.51874h12.99023c6.73536,0,11.06543,3.80078,11.06543,10.24805,0,4.95507-2.69433,8.32324-7.12011,9.52539l7.60156,13.90429h-4.90723l-6.97656-13.42285h-8.32324v13.42285Zm4.33008-17.0791h8.46777c4.2334,0,6.92774-2.30957,6.92774-6.35058,0-3.99317-2.69434-6.39942-6.92774-6.39942h-8.46777Z"/><path class="cls-1" d="M805.91955,285.35761c0-10.34375,6.25488-17.32032,15.05859-17.32032,8.80469,0,15.01074,6.92871,15.01074,17.32032s-6.20605,17.32031-15.01074,17.32031C812.17443,302.67792,805.91955,295.70136,805.91955,285.35761Zm25.73926,0c0-8.41895-4.2334-13.47071-10.68067-13.47071-6.44629,0-10.72851,5.05176-10.72851,13.47071,0,8.41992,4.28222,13.4707,10.72851,13.4707C827.42541,298.82831,831.65881,293.77753,831.65881,285.35761Z"/><path class="cls-1" d="M840.70763,294.69159l3.89649-1.39551c1.54,4.041,5.43652,5.72461,9.18945,5.72461,4.95508,0,7.40918-2.35742,7.40918-5.48437,0-8.51563-19.77344-3.7041-19.77344-16.74219,0-5.19629,4.37793-8.75684,11.40137-8.75684,5.62988,0,10.15234,2.4541,11.93164,7.50586l-3.89648,1.39551c-1.39551-3.75293-4.667-5.24414-8.03516-5.24414-4.61816,0-7.12012,2.26074-7.12012,5.09961,0,8.37109,19.77344,3.55957,19.77344,16.74219,0,5.58105-4.52246,9.1416-11.69043,9.1416C847.7799,302.67792,842.63146,300.07929,840.70763,294.69159Z"/><path class="cls-1" d="M869.33654,299.55A3.15386,3.15386,0,0,1,872.608,296.423a3.12888,3.12888,0,1,1,0,6.25488A3.15467,3.15467,0,0,1,869.33654,299.55Z"/><path class="cls-1" d="M880.16271,285.35761c0-10.34375,6.20606-17.32032,15.1543-17.32032,6.0625,0,11.06543,2.791,13.51953,8.99707l-4.041,1.49121c-1.87695-4.71484-5.10058-6.7832-9.47851-6.7832-6.44629,0-10.8252,5.14746-10.8252,13.61524s4.23438,13.61523,11.40235,13.61523a11.32131,11.32131,0,0,0,8.32324-3.55957v-7.02441l-8.082-.38477v-3.46387h12.41211V296.76c-2.88672,3.94531-7.50489,5.918-12.65332,5.918C886.36877,302.67792,880.16271,295.70136,880.16271,285.35761Z"/><path class="cls-1" d="M915.67248,302.19647V268.51874h4.33008v33.67773Z"/><path class="cls-1" d="M935.97521,302.19647v-29.8291H924.81408v-3.84863H951.4674v3.84863H940.30529v29.8291Z"/><path class="cls-1" d="M956.28088,302.19647V268.51874H960.611v14.67383H978.1715V268.51874h4.33008v33.67773H978.1715V287.0412H960.611v15.15527Z"/><path class="cls-1" d="M989.91369,288.67694v-20.1582h4.33008v20.1582c0,7.458,4.18554,10.15137,8.80468,10.15137,4.61817,0,8.75586-2.69336,8.75586-10.15137v-20.1582h4.33008v20.1582c0,9.57422-5.918,14.001-13.08594,14.001C995.87951,302.67792,989.91369,298.25116,989.91369,288.67694Z"/><path class="cls-1" d="M1023.5465,302.19647V268.51874h12.94238c6.30176,0,10.63184,2.74219,10.63184,8.90039,0,3.89746-1.876,6.35059-4.42578,7.40918v.24023c3.75293,1.20313,5.86914,3.80078,5.86914,8.083,0,5.62891-3.65625,9.04492-10.9209,9.04492Zm4.33008-18.90722h8.46777c4.2334,0,6.44629-1.97266,6.44629-5.48536,0-3.51171-2.21289-5.53222-6.44629-5.53222h-8.46777Zm0,15.15429h9.52637c4.37793,0,6.83105-2.0205,6.83105-5.72461,0-3.70507-2.45312-5.77343-6.83105-5.77343h-9.52637Z"/><path class="cls-1" d="M1052.75353,299.55a3.15386,3.15386,0,0,1,3.27149-3.12695,3.12888,3.12888,0,1,1,0,6.25488A3.15467,3.15467,0,0,1,1052.75353,299.55Z"/><path class="cls-1" d="M1064.87853,302.19647V268.51874h4.33008v33.67773Z"/><path class="cls-1" d="M1075.31994,285.35761c0-10.34375,6.2539-17.32032,15.05859-17.32032,8.80371,0,15.01074,6.92871,15.01074,17.32032s-6.207,17.32031-15.01074,17.32031C1081.57384,302.67792,1075.31994,295.70136,1075.31994,285.35761Zm25.73926,0c0-8.41895-4.23438-13.47071-10.68067-13.47071-6.44726,0-10.72949,5.05176-10.72949,13.47071,0,8.41992,4.28223,13.4707,10.72949,13.4707C1096.82482,298.82831,1101.0592,293.77753,1101.0592,285.35761Z"/></svg>