<svg id="Layer_1" data-name="Layer 1" xmlns="http://www.w3.org/2000/svg" xmlns:xlink="http://www.w3.org/1999/xlink" viewBox="0 0 1411.75953 364.97922"><defs><style>.cls-1{fill:#1d1d1b;}.cls-2{fill:url(#linear-gradient);}.cls-3{fill:url(#linear-gradient-2);}.cls-4{fill:url(#linear-gradient-3);}.cls-5{fill:url(#linear-gradient-4);}</style><linearGradient id="linear-gradient" x1="205.23286" y1="296.19713" x2="334.89028" y2="296.19713" gradientUnits="userSpaceOnUse"><stop offset="0" stop-color="#1d1d1b" stop-opacity="0"/><stop offset="1" stop-color="#1d1d1b"/></linearGradient><linearGradient id="linear-gradient-2" x1="128.39868" y1="68.78209" x2="258.0561" y2="68.78209" gradientUnits="userSpaceOnUse"><stop offset="0" stop-color="#1d1d1b"/><stop offset="1" stop-color="#1d1d1b" stop-opacity="0"/></linearGradient><linearGradient id="linear-gradient-3" x1="136.60969" y1="156.86678" x2="83.74076" y2="183.92215" gradientUnits="userSpaceOnUse"><stop offset="0.17917" stop-color="#1d1d1b"/><stop offset="0.35156" stop-color="#1d1d1b" stop-opacity="0.45953"/><stop offset="0.55175" stop-color="#1d1d1b" stop-opacity="0.11144"/><stop offset="0.79804" stop-color="#1d1d1b" stop-opacity="0"/></linearGradient><linearGradient id="linear-gradient-4" x1="322.75633" y1="199.89225" x2="391.22398" y2="199.89225" xlink:href="#linear-gradient-3"/></defs><title>vm_credits_dark</title><path class="cls-1" d="M508.70526,214.07147l-21.93311-60.793h11.44336l17.0459,50.30274h.59619l16.92627-50.30274H543.989l-21.93311,60.793Z"/><path class="cls-1" d="M602.15936,181.64862c0,10.84766,0,21.5752.59619,32.42285h-8.93994l-1.19238-10.96679h-.834c-3.81445,7.6289-10.9668,12.15918-20.74121,12.15918-11.92041,0-19.7876-7.15235-19.7876-17.88086,0-11.68164,8.34424-18.71485,25.50928-19.668l15.01953-.835v-3.09864c0-8.82129-6.31787-12.75488-14.3042-12.75488-8.46338,0-13.82763,4.05274-16.33056,11.68164l-9.29786-3.33691c2.7417-11.32422,13.11231-17.28418,25.62842-17.28418,15.377,0,24.67432,7.748,24.67432,21.33691Zm-10.37012,3.81445-13.35058.834c-10.37061.71582-16.80762,3.57617-16.80762,10.72851,0,5.60254,4.291,9.05957,11.20508,9.05957C583.32586,206.08514,591.43133,197.383,591.78924,185.46307Z"/><path class="cls-1" d="M618.48992,214.07147v-83.4414h10.728v83.4414Z"/><path class="cls-1" d="M653.05731,197.97968V162.21893H641.13739V153.2785h12.75439L656.51434,136.59h7.271V153.2785h17.64209v8.94043H663.78533v35.40235c0,5.96,3.3379,8.70215,7.74854,8.70215a15.01237,15.01237,0,0,0,8.46338-2.50293l3.45654,7.38964a22.60543,22.60543,0,0,1-13.58887,4.05372C659.97088,215.26386,653.05731,209.30389,653.05731,197.97968Z"/><path class="cls-1" d="M747.10907,187.3703H702.40838c1.07276,11.5625,7.98633,18.95313,18.23779,18.95313,6.91358,0,12.03956-2.98047,15.61573-10.13184l9.53613,3.45605c-4.2915,10.3711-13.23145,15.61622-25.15186,15.61622-18.11865,0-29.2041-13.82813-29.2041-31.58887s10.96631-31.58789,29.085-31.58789c15.97315,0,26.93946,11.085,26.93946,30.03808A36.29331,36.29331,0,0,1,747.10907,187.3703Zm-44.58155-8.582h34.688c-.95361-11.32422-7.50976-17.76172-16.68848-17.76172C710.63348,161.02655,703.95819,167.82147,702.52752,178.78827Z"/><path class="cls-1" d="M796.33856,152.20624v10.13183c-1.90723-.11914-2.86084-.11914-4.52979-.11914-9.53613,0-19.90674,5.84082-19.90674,23.959v27.89355H761.174V185.70136c0-10.84766,0-21.5752-.59619-32.42286h10.13232l1.43018,11.91993h.71533c3.57617-8.582,10.25146-13.11133,18.71484-13.11133C793.239,152.0871,794.3117,152.0871,796.33856,152.20624Z"/><path class="cls-1" d="M805.8742,214.07147V185.70136c0-10.84766,0-21.5752-.59619-32.42286h22.291l1.311,8.94043h1.1919a22.62806,22.62806,0,0,1,19.54931-10.13183c8.34375,0,14.42334,4.291,17.76074,11.91992h1.19239c4.76806-8.583,12.1582-11.91992,20.3833-11.91992,12.15869,0,18.834,7.98633,18.834,22.05176v39.93261H884.54705V180.57538c0-5.96-2.74121-8.82031-7.39013-8.82031-5.4834,0-8.70166,4.291-8.70166,10.96679v31.34961H845.21063V180.57538c0-5.96-2.7417-8.82031-7.39063-8.82031-5.48291,0-8.70166,4.291-8.70166,10.96679v31.34961Z"/><path class="cls-1" d="M980.62225,188.801H939.49774c1.19189,8.10546,5.36426,11.08593,10.96631,11.08593,4.64892,0,7.50976-2.38476,9.417-6.67578l20.50293,4.05274c-4.64893,11.68164-13.82764,18-30.39649,18-21.69482,0-32.66113-13.709-32.66113-31.58887s10.84717-31.58789,32.42285-31.58789c20.26416,0,31.23047,13.58887,31.23047,29.56152A65.19947,65.19947,0,0,1,980.62225,188.801ZM939.736,177.35761h19.7876c-1.1919-7.03321-5.00635-9.89356-9.77442-9.89356C944.62323,167.464,941.04754,170.56268,939.736,177.35761Z"/><path class="cls-1" d="M988.131,183.675c0-20.14453,8.70166-31.58789,23.36328-31.58789,7.98682,0,14.3042,3.81445,18.35742,10.72754h1.1919V130.63007h23.24414v51.01855c0,10.84766,0,21.5752.59619,32.42285h-22.291l-1.54931-9.53613h-1.1919c-4.05322,6.91406-10.3706,10.72852-18.35742,10.72852C996.8327,215.26386,988.131,203.8205,988.131,183.675Zm42.9126,0c0-8.10547-3.81446-13.11231-9.89405-13.11231-5.96,0-9.77441,5.00684-9.77441,13.11231s3.81445,13.1123,9.77441,13.1123C1027.22918,196.78729,1031.04364,191.78046,1031.04364,183.675Z"/><path class="cls-1" d="M1127.71551,188.801H1086.591c1.19189,8.10546,5.36426,11.08593,10.9668,11.08593,4.64843,0,7.50927-2.38476,9.4165-6.67578l20.50293,4.05274c-4.64893,11.68164-13.82764,18-30.39648,18-21.69483,0-32.66114-13.709-32.66114-31.58887s10.84717-31.58789,32.42285-31.58789c20.26416,0,31.231,13.58887,31.231,29.56152A65.192,65.192,0,0,1,1127.71551,188.801Zm-40.88623-11.44336h19.7876c-1.1919-7.03321-5.00635-9.89356-9.77442-9.89356C1091.71649,167.464,1088.1408,170.56268,1086.82928,177.35761Z"/><path class="cls-1" d="M1136.53533,134.80194c0-7.15137,5.84083-12.51562,13.35059-12.51562s13.46973,5.36425,13.46973,12.51562c0,7.15235-5.96,12.5166-13.46973,12.5166S1136.53533,141.95429,1136.53533,134.80194Zm1.66895,79.26953v-60.793h23.24414v60.793Z"/><path class="cls-1" d="M1219.26043,152.20624v23.36328a31.18113,31.18113,0,0,0-4.64892-.23828c-9.17871,0-16.80762,4.41015-16.80762,18.2373v20.50293h-23.24414V185.70136c0-10.84766,0-21.5752-.59619-32.42286h22.291l1.90723,13.11231h1.66846c2.98047-9.77442,8.82129-14.30371,16.09228-14.30371C1216.9953,152.0871,1217.94891,152.0871,1219.26043,152.20624Z"/><path class="cls-1" d="M1224.0285,183.675c0-17.87988,10.84717-31.58789,32.66113-31.58789s32.66113,13.708,32.66113,31.58789-10.84716,31.58887-32.66113,31.58887S1224.0285,201.55487,1224.0285,183.675Zm42.07812,0c0-8.10547-3.69531-13.11231-9.417-13.11231s-9.417,5.00684-9.417,13.11231,3.69531,13.1123,9.417,13.1123S1266.10662,191.78046,1266.10662,183.675Z"/><path class="cls-1" d="M1296.50116,199.05194l20.145-4.05273c1.1919,4.17187,4.52979,6.55566,10.0127,6.55566,4.17236,0,6.55615-1.78808,6.55615-4.5293,0-9.05957-35.28369-1.43066-35.28369-27.05859,0-10.13184,9.7749-17.87988,27.29736-17.87988,14.78077,0,25.27051,4.76758,28.251,15.25781l-20.14551,4.05273c-1.07275-4.05273-4.291-5.60253-7.748-5.60253-3.33741,0-5.60254,1.5498-5.60254,3.93359,0,8.93945,35.28369,1.43066,35.28369,27.05859,0,10.72852-9.89356,18.47657-28.01221,18.47657C1310.56658,215.26386,1299.48114,209.8996,1296.50116,199.05194Z"/><path class="cls-1" d="M344.86489,58.56871c28.03613,0,39.89746,16.61328,39.89746,40.03614V151.1693c0,14.16211,5.3916,20.42578,17.25293,20.42578h8.35645v21.78906h-8.35645c-11.86133,0-17.25293,6.26367-17.25293,20.42578v52.56446c0,23.42285-11.86133,40.03613-39.89746,40.03613h-9.97461V285.98375h8.626c12.13183,0,18.332-7.35351,18.332-20.42578V212.99352c0-16.3418,4.582-26.41895,14.82617-29.959v-1.3623c-10.24414-3.54-14.82617-13.34473-14.82617-29.68652V99.42125c0-13.07226-6.2002-20.42578-18.332-20.42578h-8.626V58.56871Z"/><path class="cls-1" d="M118.42407,306.41051c-28.03613,0-39.89746-16.61328-39.89746-40.03613V213.80992c0-14.16211-5.3916-20.42578-17.25293-20.42578H52.91723V171.59508h8.35645c11.86133,0,17.25293-6.26367,17.25293-20.42578V98.60485c0-23.42286,11.86133-40.03614,39.89746-40.03614h9.97461V78.99547h-8.626c-12.13183,0-18.332,7.35352-18.332,20.42578v52.56446c0,16.34179-4.582,26.41894-14.82617,29.959v1.3623c10.24414,3.54,14.82617,13.34473,14.82617,29.68653V265.558c0,13.07227,6.2002,20.42578,18.332,20.42578h8.626v20.42676Z"/><rect class="cls-2" x="205.23286" y="285.98375" width="129.65742" height="20.42676"/><rect class="cls-3" x="128.39868" y="58.56871" width="129.65742" height="20.42676"/><path class="cls-1" d="M151.5534,218.33612l-22.5249-67.97558h26.39014l11.32959,45.98339h1.33252l11.32958-45.98339h25.59083l-22.5254,67.97558Z"/><path class="cls-1" d="M213.92645,218.33612V186.61444c0-12.1289,0-24.125-.66651-36.2539h24.92481l1.46582,9.99609h1.333a25.30193,25.30193,0,0,1,21.85888-11.3291c9.33008,0,16.12745,4.79785,19.85938,13.3291h1.333c5.33154-9.59766,13.59521-13.3291,22.7915-13.3291,13.59522,0,21.05957,8.93066,21.05957,24.65722v44.65137H301.8952V180.883c0-6.665-3.06592-9.86328-8.26367-9.86328-6.13135,0-9.73,4.79785-9.73,12.26269v35.05371H257.91082V180.883c0-6.665-3.06543-9.86328-8.26367-9.86328-6.13135,0-9.73,4.79785-9.73,12.26269v35.05371Z"/><path class="cls-4" d="M82.44756,183.81337s31.3531-10.75382,46.60828-33.46341l12.78126,13.88947S113.7931,181.89,82.44756,183.81337Z"/><path class="cls-5" d="M327.63334,218.33452s17.81036-37.33721,63.59064-36.79229c0,0-46.992-2.05416-67.21328,13.2234C324.0107,194.76563,319.48241,207.0871,327.63334,218.33452Z"/><path class="cls-1" d="M488.45037,92.2453V58.56757h10.77686c9.57422,0,15.9248,6.73535,15.9248,16.83886s-6.35058,16.83887-15.9248,16.83887Zm4.33008-3.84863h6.44678c7.02393,0,11.59473-4.90723,11.59473-12.99024s-4.5708-12.99023-11.59473-12.99023h-6.44678Z"/><path class="cls-1" d="M521.26532,92.2453V58.56757H543.6369V62.4162H525.59539v10.585h16.11719v3.84863H525.59539V88.39667H543.6369V92.2453Z"/><path class="cls-1" d="M559.41961,92.2453,547.24774,58.56757h4.61865L562.30633,88.3h.24072l10.4878-29.73242h4.42627L565.2409,92.2453Z"/><path class="cls-1" d="M582.132,92.2453V58.56757H604.5036V62.4162H586.46209v10.585h16.11719v3.84863H586.46209V88.39667H604.5036V92.2453Z"/><path class="cls-1" d="M610.85662,92.2453V58.56757h4.33008v29.8291H632.218V92.2453Z"/><path class="cls-1" d="M635.68475,75.40643c0-10.34375,6.25439-17.32031,15.05859-17.32031s15.01074,6.92871,15.01074,17.32031-6.20654,17.32032-15.01074,17.32032S635.68475,85.75018,635.68475,75.40643Zm25.73926,0c0-8.41894-4.23389-13.4707-10.68067-13.4707s-10.729,5.05176-10.729,13.4707c0,8.41993,4.28223,13.47071,10.729,13.47071S661.424,83.82636,661.424,75.40643Z"/><path class="cls-1" d="M671.86737,92.2453V58.56757h12.26806c7.45752,0,11.7876,3.84863,11.7876,10.48828,0,6.59082-4.33008,10.44043-11.7876,10.44043h-7.938v12.749Zm4.33007-16.59863h7.74561c4.811,0,7.6499-2.35742,7.6499-6.59082s-2.83887-6.63965-7.6499-6.63965h-7.74561Z"/><path class="cls-1" d="M701.07391,92.2453V58.56757h22.37158V62.4162H705.404v10.585h16.11718v3.84863H705.404V88.39667h18.0415V92.2453Z"/><path class="cls-1" d="M729.79852,92.2453V58.56757h10.77685c9.57422,0,15.92481,6.73535,15.92481,16.83886S750.14959,92.2453,740.57537,92.2453Zm4.33008-3.84863h6.44677c7.02393,0,11.59473-4.90723,11.59473-12.99024S747.5993,62.4162,740.57537,62.4162H734.1286Z"/><path class="cls-1" d="M797.06219,92.2453,794.36785,84.548H778.63592l-2.69434,7.69726h-4.42626L783.591,58.56757h5.96582l12.124,33.67773ZM779.88641,80.93964h13.231L786.62225,62.3205h-.24072Z"/><path class="cls-1" d="M806.20672,92.2453V58.56757h4.811L828.72283,85.51h.28858c-.14453-3.56055-.19238-6.63965-.19238-9.959V58.56757h4.32959V92.2453h-4.811L810.58465,65.30292h-.24023c.144,3.6084.19238,6.5918.19238,9.959V92.2453Z"/><path class="cls-1" d="M840.56121,92.2453V58.56757h10.77686c9.57422,0,15.9248,6.73535,15.9248,16.83886s-6.35058,16.83887-15.9248,16.83887Zm4.33008-3.84863h6.44678c7.02393,0,11.59473-4.90723,11.59473-12.99024S858.362,62.4162,851.33807,62.4162h-6.44678Z"/><path class="cls-1" d="M885.16424,92.2453V58.56757H895.9411c9.57422,0,15.9248,6.73535,15.9248,16.83886S905.51532,92.2453,895.9411,92.2453Zm4.33008-3.84863h6.44678c7.02392,0,11.59472-4.90723,11.59472-12.99024S902.965,62.4162,895.9411,62.4162h-6.44678Z"/><path class="cls-1" d="M917.97918,92.2453V58.56757h22.37158V62.4162h-18.0415v10.585h16.11719v3.84863H922.30926V88.39667h18.0415V92.2453Z"/><path class="cls-1" d="M945.40545,84.74042l3.897-1.39551c1.53956,4.041,5.43653,5.72461,9.189,5.72461,4.95557,0,7.40918-2.35742,7.40918-5.48438,0-8.51562-19.77344-3.7041-19.77344-16.74218,0-5.19629,4.37793-8.75684,11.40186-8.75684,5.62939,0,10.15185,2.4541,11.93164,7.50586l-3.897,1.39551c-1.395-3.75293-4.66651-5.24414-8.03467-5.24414-4.61866,0-7.12012,2.26074-7.12012,5.09961,0,8.37109,19.77344,3.55957,19.77344,16.74218,0,5.58106-4.52246,9.14161-11.69092,9.14161C952.47772,92.72675,947.32977,90.12811,945.40545,84.74042Z"/><path class="cls-1" d="M976.05438,92.2453V58.56757h4.33008V92.2453Z"/><path class="cls-1" d="M986.4953,75.40643c0-10.34375,6.20605-17.32031,15.15478-17.32031,6.062,0,11.06543,2.791,13.519,8.99707l-4.041,1.49121c-1.87647-4.71484-5.1001-6.7832-9.478-6.7832-6.44678,0-10.82519,5.14746-10.82519,13.61523s4.23388,13.61524,11.40234,13.61524a11.32293,11.32293,0,0,0,8.32324-3.55957V78.43768l-8.08252-.38476V74.58905h12.4126V86.80878c-2.88672,3.94531-7.50537,5.918-12.65332,5.918C992.70135,92.72675,986.4953,85.75018,986.4953,75.40643Z"/><path class="cls-1" d="M1022.00506,92.2453V58.56757h4.811L1044.52117,85.51h.28858c-.14453-3.56055-.19238-6.63965-.19238-9.959V58.56757h4.32959V92.2453h-4.811L1026.383,65.30292h-.24023c.144,3.6084.19238,6.5918.19238,9.959V92.2453Z"/><path class="cls-1" d="M1056.35955,92.2453V58.56757h22.37159V62.4162h-18.04151v10.585h16.11719v3.84863h-16.11719V88.39667h18.04151V92.2453Z"/><path class="cls-1" d="M1085.08416,92.2453V58.56757H1095.861c9.57422,0,15.9248,6.73535,15.9248,16.83886s-6.35058,16.83887-15.9248,16.83887Zm4.33008-3.84863h6.44678c7.02392,0,11.59473-4.90723,11.59473-12.99024S1102.88494,62.4162,1095.861,62.4162h-6.44678Z"/><path class="cls-1" d="M1129.68719,92.2453V58.56757h12.94189c6.30225,0,10.63233,2.74218,10.63233,8.90039,0,3.89746-1.876,6.35058-4.42627,7.40918v.24023c3.75293,1.20313,5.86963,3.80078,5.86963,8.083,0,5.62891-3.65625,9.04492-10.9209,9.04492Zm4.33008-18.90723h8.46728c4.23389,0,6.44678-1.97265,6.44678-5.48535,0-3.51172-2.21289-5.53222-6.44678-5.53222h-8.46728Zm0,15.1543h9.52588c4.37793,0,6.83154-2.02051,6.83154-5.72461,0-3.70508-2.45361-5.77344-6.83154-5.77344h-9.52588Z"/><path class="cls-1" d="M1169.52606,92.2453V79.20722l-12.07569-20.63965h4.95508l9.23731,16.50195h.24072l9.09277-16.50195h4.85938l-11.97949,20.59179V92.2453Z"/><path class="cls-1" d="M497.88006,302.19647l-12.17187-33.67773h4.61865l10.43994,29.73242h.24072l10.4878-29.73242h4.42627l-12.22022,33.67773Z"/><path class="cls-1" d="M540.94305,302.19647l-2.69434-7.69726H522.51678l-2.69434,7.69726h-4.42627l12.07569-33.67773h5.96582l12.124,33.67773Zm-17.17578-11.30566h13.231l-6.49512-18.61914h-.24072Z"/><path class="cls-1" d="M550.08758,302.19647V268.51874h4.33008v29.8291h17.03125v3.84863Z"/><path class="cls-1" d="M582.758,302.19647v-29.8291H571.59637v-3.84863h26.65381v3.84863H587.08807v29.8291Z"/><path class="cls-1" d="M603.06366,302.19647V268.51874h22.37158v3.84863H607.39373v10.585h16.11719V286.801H607.39373v11.54687h18.04151v3.84863Z"/><path class="cls-1" d="M631.78826,302.19647V268.51874H644.778c6.73584,0,11.06592,3.80078,11.06592,10.24805,0,4.95507-2.69434,8.32324-7.12061,9.52539l7.60157,13.90429h-4.90723l-6.97608-13.42285h-8.32324v13.42285Zm4.33008-17.0791h8.46729c4.23388,0,6.92822-2.30957,6.92822-6.35058,0-3.99317-2.69434-6.39942-6.92822-6.39942h-8.46729Z"/><path class="cls-1" d="M662.19744,302.19647V268.51874h6.7837l10.24755,28.81836,10.24756-28.81836h6.87989v33.67773h-4.33008V273.426h-.24024l-10.248,28.7705h-4.7627L666.52752,273.426h-.24072v28.7705Z"/><path class="cls-1" d="M703.76971,302.19647V268.51874h10.77686c9.57421,0,15.9248,6.73535,15.9248,16.83887s-6.35059,16.83886-15.9248,16.83886Zm4.33008-3.84863h6.44678c7.02392,0,11.59472-4.90723,11.59472-12.99023s-4.5708-12.99024-11.59472-12.99024h-6.44678Z"/><path class="cls-1" d="M736.58514,302.19647V268.51874h22.37158v3.84863h-18.0415v10.585h16.11719V286.801H740.91522v11.54687h18.0415v3.84863Z"/><path class="cls-1" d="M765.30975,302.19647V268.51874h4.33008v33.67773Z"/><path class="cls-1" d="M777.0495,302.19647V268.51874h12.98974c6.73584,0,11.06592,3.80078,11.06592,10.24805,0,4.95507-2.69434,8.32324-7.12061,9.52539l7.60157,13.90429h-4.90723l-6.97607-13.42285h-8.32325v13.42285Zm4.33007-17.0791h8.46729c4.23389,0,6.92822-2.30957,6.92822-6.35058,0-3.99317-2.69433-6.39942-6.92822-6.39942h-8.46729Z"/><path class="cls-1" d="M805.91961,285.35761c0-10.34375,6.2544-17.32032,15.0586-17.32032S835.989,274.966,835.989,285.35761s-6.20654,17.32031-15.01074,17.32031S805.91961,295.70136,805.91961,285.35761Zm25.73926,0c0-8.41895-4.23389-13.47071-10.68066-13.47071s-10.729,5.05176-10.729,13.47071c0,8.41992,4.28223,13.4707,10.729,13.4707S831.65887,293.77753,831.65887,285.35761Z"/><path class="cls-1" d="M840.70721,294.69159l3.897-1.39551c1.53955,4.041,5.43653,5.72461,9.189,5.72461,4.95556,0,7.40918-2.35742,7.40918-5.48437,0-8.51563-19.77344-3.7041-19.77344-16.74219,0-5.19629,4.37793-8.75684,11.40186-8.75684,5.62939,0,10.15185,2.4541,11.93164,7.50586l-3.897,1.39551c-1.395-3.75293-4.6665-5.24414-8.03466-5.24414-4.61866,0-7.12012,2.26074-7.12012,5.09961,0,8.37109,19.77344,3.55957,19.77344,16.74219,0,5.58105-4.52247,9.1416-11.69092,9.1416C847.77948,302.67792,842.63153,300.07929,840.70721,294.69159Z"/><path class="cls-1" d="M869.33612,299.55a3.15415,3.15415,0,0,1,3.27148-3.12695,3.12888,3.12888,0,1,1,0,6.25488A3.155,3.155,0,0,1,869.33612,299.55Z"/><path class="cls-1" d="M880.16229,285.35761c0-10.34375,6.20605-17.32032,15.15478-17.32032,6.062,0,11.06543,2.791,13.51905,8.99707l-4.041,1.49121c-1.87646-4.71484-5.1001-6.7832-9.478-6.7832-6.44677,0-10.82519,5.14746-10.82519,13.61524s4.23388,13.61523,11.40234,13.61523a11.32293,11.32293,0,0,0,8.32324-3.55957v-7.02441l-8.08252-.38477v-3.46387h12.4126V296.76c-2.88672,3.94531-7.50537,5.918-12.65332,5.918C886.36834,302.67792,880.16229,295.70136,880.16229,285.35761Z"/><path class="cls-1" d="M915.67205,302.19647V268.51874h4.33008v33.67773Z"/><path class="cls-1" d="M935.97528,302.19647v-29.8291H924.81366v-3.84863h26.6538v3.84863H940.30535v29.8291Z"/><path class="cls-1" d="M956.28094,302.19647V268.51874H960.611v14.67383h17.56055V268.51874h4.32959v33.67773h-4.32959V287.0412H960.611v15.15527Z"/><path class="cls-1" d="M989.91375,288.67694v-20.1582h4.33008v20.1582c0,7.458,4.18555,10.15137,8.8042,10.15137s8.75635-2.69336,8.75635-10.15137v-20.1582h4.32959v20.1582c0,9.57422-5.91748,14.001-13.08594,14.001S989.91375,298.25116,989.91375,288.67694Z"/><path class="cls-1" d="M1023.54657,302.19647V268.51874h12.94189c6.30225,0,10.63232,2.74219,10.63232,8.90039,0,3.89746-1.876,6.35059-4.42627,7.40918v.24023c3.75293,1.20313,5.86963,3.80078,5.86963,8.083,0,5.62891-3.65625,9.04492-10.92089,9.04492Zm4.33007-18.90722h8.46729c4.23389,0,6.44678-1.97266,6.44678-5.48536,0-3.51171-2.21289-5.53222-6.44678-5.53222h-8.46729Zm0,15.15429h9.52588c4.37793,0,6.83155-2.0205,6.83155-5.72461,0-3.70507-2.45362-5.77343-6.83155-5.77343h-9.52588Z"/><path class="cls-1" d="M1052.75311,299.55a3.15415,3.15415,0,0,1,3.27148-3.12695,3.12888,3.12888,0,1,1,0,6.25488A3.155,3.155,0,0,1,1052.75311,299.55Z"/><path class="cls-1" d="M1064.87811,302.19647V268.51874h4.33008v33.67773Z"/><path class="cls-1" d="M1075.31951,285.35761c0-10.34375,6.2544-17.32032,15.0586-17.32032s15.01074,6.92871,15.01074,17.32032-6.20654,17.32031-15.01074,17.32031S1075.31951,295.70136,1075.31951,285.35761Zm25.73926,0c0-8.41895-4.23388-13.47071-10.68066-13.47071s-10.729,5.05176-10.729,13.47071c0,8.41992,4.28223,13.4707,10.729,13.4707S1101.05877,293.77753,1101.05877,285.35761Z"/></svg>